<?xml version="1.0" encoding="utf-8"?>
<!-- Generator: Adobe Illustrator 16.0.0, SVG Export Plug-In . SVG Version: 6.00 Build 0)  -->
<!DOCTYPE svg PUBLIC "-//W3C//DTD SVG 1.1//EN" "http://www.w3.org/Graphics/SVG/1.1/DTD/svg11.dtd">
<svg version="1.1" xmlns="http://www.w3.org/2000/svg" xmlns:xlink="http://www.w3.org/1999/xlink" x="0px" y="0px"
	 width="654.667px" height="150px" viewBox="0 0 654.667 150" enable-background="new 0 0 654.667 150" xml:space="preserve">
<g id="Partners">
	<g>
		<path fill="#B51783" d="M314.799,59.453c0-9.337-5.753-9.514-12.346-9.514h-13.762v31.728h6.549V69.188h5.885l7.788,12.479h7.965
			l-8.274-12.877C312.232,67.949,314.799,65.648,314.799,59.453z M301.125,63.745h-5.885v-8.363h6.284
			c5.531,0,6.638,0.664,6.638,3.851C308.162,63.214,306.392,63.745,301.125,63.745z"/>
		<path fill="#B51783" d="M583.926,59.453c0-9.337-5.753-9.514-12.346-9.514h-13.763v31.728h6.55V69.188h5.885l7.788,12.479h7.965
			l-8.274-12.877C581.36,67.949,583.926,65.648,583.926,59.453z M570.252,63.745h-5.885v-8.363h6.283
			c5.531,0,6.638,0.664,6.638,3.851C577.289,63.214,575.518,63.745,570.252,63.745z"/>
		<path fill="#B51783" d="M178.215,53.048c-0.876-0.949-2.011-1.713-3.405-2.292c-1.395-0.579-3.086-0.868-5.074-0.868h-14.332
			v31.779h6.988V70.273h7.344c1.988,0,3.679-0.29,5.074-0.868c1.395-0.579,2.529-1.342,3.405-2.292
			c0.875-0.949,1.513-2.04,1.914-3.271c0.401-1.231,0.601-2.485,0.601-3.761c0-1.306-0.2-2.566-0.601-3.783
			C179.728,55.081,179.089,53.998,178.215,53.048z M173.452,62.528c-0.341,0.623-0.794,1.106-1.357,1.447
			c-0.564,0.341-1.217,0.571-1.958,0.689c-0.742,0.119-1.513,0.178-2.314,0.178h-5.43v-9.525h5.43c0.801,0,1.573,0.06,2.314,0.178
			c0.742,0.119,1.395,0.349,1.958,0.69c0.563,0.341,1.016,0.823,1.357,1.446c0.341,0.623,0.512,1.439,0.512,2.448
			S173.793,61.905,173.452,62.528z"/>
		<path fill="#B51783" d="M227.864,49.888l-12.017,31.779h7.032l2.493-7.077h11.884l2.403,7.077h7.255L235.03,49.888H227.864z
			 M227.196,69.383l4.139-11.661h0.089l4.006,11.661H227.196z"/>
		<polygon fill="#B51783" points="353.288,55.763 362.813,55.763 362.813,81.667 369.8,81.667 369.8,55.763 379.326,55.763 
			379.326,49.888 353.288,49.888 		"/>
		<polygon fill="#B51783" points="440.659,71.208 440.57,71.208 427.306,49.888 420.363,49.888 420.363,81.667 426.906,81.667 
			426.906,60.392 426.995,60.392 440.213,81.667 447.202,81.667 447.202,49.888 440.659,49.888 		"/>
		<polygon fill="#B51783" points="497.717,68.003 513.118,68.003 513.118,62.573 497.717,62.573 497.717,55.763 514.498,55.763 
			514.498,49.888 490.73,49.888 490.73,81.667 514.853,81.667 514.853,75.792 497.717,75.792 		"/>
		<path fill="#B51783" d="M650.091,67.847c-0.757-1.142-1.654-2.054-2.692-2.737c-1.039-0.682-2.085-1.18-3.138-1.491
			c-1.054-0.312-1.877-0.526-2.471-0.645c-1.988-0.504-3.598-0.919-4.829-1.247c-1.231-0.326-2.196-0.652-2.893-0.979
			c-0.698-0.326-1.165-0.682-1.402-1.068c-0.238-0.385-0.356-0.89-0.356-1.513c0-0.682,0.148-1.246,0.445-1.691
			c0.296-0.445,0.675-0.815,1.135-1.113c0.46-0.296,0.972-0.504,1.536-0.623c0.563-0.118,1.127-0.178,1.691-0.178
			c0.86,0,1.653,0.074,2.381,0.222c0.727,0.149,1.372,0.401,1.937,0.757c0.562,0.356,1.016,0.846,1.357,1.469
			c0.341,0.623,0.541,1.41,0.601,2.359h6.766c0-1.839-0.35-3.405-1.046-4.695c-0.698-1.291-1.641-2.352-2.827-3.183
			c-1.187-0.831-2.544-1.431-4.072-1.803c-1.528-0.371-3.123-0.556-4.784-0.556c-1.425,0-2.849,0.193-4.273,0.579
			c-1.424,0.386-2.7,0.979-3.827,1.78c-1.128,0.801-2.041,1.803-2.737,3.004c-0.698,1.202-1.046,2.619-1.046,4.25
			c0,1.454,0.273,2.693,0.823,3.716c0.549,1.024,1.269,1.877,2.158,2.56c0.891,0.683,1.898,1.239,3.027,1.669
			c1.127,0.431,2.284,0.794,3.472,1.09c1.156,0.327,2.299,0.623,3.427,0.89c1.127,0.267,2.137,0.579,3.026,0.935
			c0.891,0.356,1.609,0.801,2.159,1.335c0.548,0.534,0.823,1.231,0.823,2.092c0,0.801-0.208,1.462-0.623,1.981
			c-0.416,0.52-0.935,0.928-1.558,1.224c-0.624,0.297-1.291,0.498-2.003,0.601c-0.713,0.104-1.38,0.156-2.003,0.156
			c-0.921,0-1.811-0.111-2.671-0.334c-0.861-0.223-1.61-0.563-2.248-1.023c-0.638-0.46-1.149-1.061-1.535-1.803
			c-0.386-0.741-0.579-1.647-0.579-2.715h-6.765c-0.03,1.958,0.326,3.649,1.068,5.074c0.741,1.424,1.742,2.597,3.004,3.516
			c1.261,0.92,2.715,1.596,4.362,2.025c1.646,0.43,3.345,0.645,5.096,0.645c2.166,0,4.072-0.252,5.72-0.756
			c1.646-0.504,3.026-1.209,4.139-2.114c1.113-0.905,1.951-1.98,2.515-3.227c0.563-1.246,0.846-2.596,0.846-4.05
			C651.226,70.451,650.848,68.99,650.091,67.847z"/>
	</g>
</g>
<g id="LT">
	<g>
		<path fill="#B51783" d="M125.16,125.964l-1.596-1.726l-1.596-1.726l-1.596-1.727l-1.595-1.728l-1.595-1.725l-1.597-1.727
			l-1.595-1.727c-3.98,3.997-8.424,7.095-13.148,9.368c-4.727,2.273-9.734,3.723-14.846,4.425
			c-5.112,0.703-10.328,0.658-15.467-0.058s-10.201-2.103-15.009-4.084c-4.808-1.98-9.359-4.555-13.476-7.648
			c-4.115-3.094-7.797-6.705-10.863-10.757c-3.067-4.054-5.519-8.548-7.176-13.406c-1.658-4.858-2.521-10.082-2.41-15.596
			c0-3.05,0-6.1,0-9.149c0-3.051,0-6.102,0-9.151s0-6.101,0-9.151c0-3.05,0-6.1,0-9.15s0-6.101,0-9.15c0-3.051,0-6.102,0-9.151
			s0-6.101,0-9.151c0-3.05,0-6.1,0-9.15h-2.315h-2.315h-2.315h-2.315h-2.314H7.708H5.394H3.079c0,0.029,0,0.06,0.001,0.09
			C3.081,3.039,3.081,3.069,3.082,3.1S3.084,3.16,3.085,3.191c0.001,0.03,0.002,0.062,0.004,0.092
			c0.001,0.031,0.003,0.062,0.004,0.094c0.002,0.03,0.003,0.062,0.005,0.094c0.001,0.031,0.003,0.062,0.005,0.093
			C3.106,3.596,3.108,3.627,3.11,3.658c0,2.958,0,5.916,0,8.874c0,2.957,0,5.915,0,8.873s0,5.916,0,8.874s0,5.916,0,8.874
			c0,2.957,0,5.915,0,8.873s0,5.915,0,8.873s0,5.916,0,8.874s0,5.916,0,8.873c0.469,5.355,1.247,10.4,2.329,15.141
			c1.082,4.741,2.468,9.18,4.149,13.321c1.682,4.141,3.66,7.987,5.928,11.543c2.268,3.554,4.825,6.82,7.665,9.804
			c2.84,2.982,5.964,5.684,9.362,8.107c3.399,2.424,7.073,4.571,11.019,6.45c3.943,1.88,8.157,3.49,12.633,4.839
			c4.477,1.348,9.169,2.431,14.207,3.031c3.373,0.462,6.437,0.354,9.449,0.208c3.012-0.146,5.889-0.426,8.641-0.83
			c2.752-0.406,5.38-0.935,7.894-1.579c2.513-0.644,4.911-1.401,7.206-2.266c2.294-0.862,4.484-1.83,6.58-2.892
			s4.097-2.218,6.014-3.459c1.917-1.24,3.75-2.565,5.508-3.965c1.759-1.397,3.442-2.872,5.062-4.409L125.16,125.964z"/>
		<path fill="#B51783" d="M101.861,100.262l-12.51-13.525c-8.388,8.126-25.393,5.087-29.34-6.243
			c-1.163-2.87-1.256-5.292-1.256-5.292l-0.087-17.15h29.666V40.119H58.57c0-12.4,0-24.8,0-37.2H40.083c0,0.246,0,0.492,0,0.739
			c0,24.896,0,49.791,0,74.686C40.707,106.257,82.889,120.554,101.861,100.262z"/>
	</g>
</g>
</svg>
